<?xml version="1.0" standalone="no"?>
<!DOCTYPE svg PUBLIC "-//W3C//DTD SVG 20010904//EN"
 "http://www.w3.org/TR/2001/REC-SVG-20010904/DTD/svg10.dtd">
<svg version="1.0" xmlns="http://www.w3.org/2000/svg"
 width="50.000000pt" height="50.000000pt" viewBox="0 0 50.000000 50.000000"
 preserveAspectRatio="xMidYMid meet">

<g transform="translate(0.000000,50.000000) scale(0.100000,-0.100000)"
fill="#000000" stroke="none">
<path d="M132 398 c-17 -17 -15 -53 3 -68 22 -19 64 -4 71 25 4 15 1 32 -6 40
-15 18 -51 20 -68 3z"/>
<path d="M242 398 c-19 -19 -15 -37 19 -90 l32 -49 -32 -33 c-62 -64 -29 -78
36 -14 41 41 42 42 28 75 l-14 33 56 0 55 0 -6 -54 c-12 -96 46 -245 70 -182
3 8 -2 40 -10 71 -16 53 -16 59 4 124 36 123 29 131 -119 131 -70 0 -111 -4
-119 -12z"/>
<path d="M43 347 c-38 -18 -43 -25 -43 -54 l0 -33 53 26 c64 33 59 27 51 58
-7 31 -7 31 -61 3z"/>
<path d="M206 273 c-4 -5 -12 -8 -17 -8 -5 0 -9 -4 -10 -10 0 -5 -5 -16 -11
-22 -7 -9 -7 -18 2 -28 18 -21 33 -19 60 10 19 20 22 30 14 42 -13 20 -27 26
-38 16z"/>
<path d="M28 254 c-5 -4 -8 -43 -8 -86 0 -45 -4 -78 -10 -78 -5 0 -10 -4 -10
-10 0 -5 13 -10 30 -10 17 0 30 5 30 10 0 6 -4 10 -10 10 -5 0 -11 39 -12 86
-2 47 -6 82 -10 78z"/>
<path d="M275 160 c-27 -28 -28 -31 -13 -47 15 -14 19 -14 34 -2 9 8 20 13 23
12 3 -2 6 0 6 5 0 4 4 13 9 20 7 12 -9 42 -23 42 -4 0 -20 -14 -36 -30z"/>
</g>
</svg>
