<?xml version="1.0" standalone="no"?>
<!DOCTYPE svg PUBLIC "-//W3C//DTD SVG 20010904//EN"
 "http://www.w3.org/TR/2001/REC-SVG-20010904/DTD/svg10.dtd">
<svg version="1.0" xmlns="http://www.w3.org/2000/svg"
 width="100.000000pt" height="100.000000pt" viewBox="0 0 100.000000 100.000000"
 preserveAspectRatio="xMidYMid meet">

<g transform="translate(0.000000,100.000000) scale(0.100000,-0.100000)"
fill="#000000" stroke="none">
<path d="M364 936 c-11 -8 -29 -34 -39 -58 -11 -24 -34 -60 -51 -80 -64 -72
-69 -165 -13 -212 40 -34 74 -33 110 3 21 21 29 39 29 63 0 19 5 59 10 89 11
60 1 200 -15 206 -6 2 -20 -3 -31 -11z"/>
<path d="M560 898 c-11 -18 -20 -38 -20 -45 0 -7 -18 -29 -40 -49 -68 -63 -77
-150 -24 -214 35 -41 68 -39 109 5 41 43 59 93 52 148 -3 23 -9 69 -13 102
-10 91 -31 108 -64 53z"/>
<path d="M745 766 c-12 -31 -26 -47 -51 -60 -65 -30 -94 -139 -54 -203 60 -99
191 -5 177 126 -3 25 -7 70 -10 98 -4 50 -19 83 -37 83 -5 0 -16 -20 -25 -44z"/>
<path d="M100 708 c-11 -18 -20 -38 -20 -45 0 -7 -8 -17 -19 -22 -67 -36 -44
-188 32 -215 86 -31 142 118 78 205 -12 15 -21 39 -21 53 0 31 -9 56 -21 56
-5 0 -18 -15 -29 -32z"/>
<path d="M901 559 c-11 -18 -37 -41 -58 -53 -42 -23 -83 -91 -83 -139 0 -57
48 -107 103 -107 35 0 82 35 101 75 19 39 19 43 -3 177 -14 88 -28 99 -60 47z"/>
<path d="M345 506 c-16 -8 -52 -37 -79 -65 -33 -33 -66 -56 -97 -66 -60 -20
-80 -43 -86 -98 -17 -152 145 -243 340 -192 97 25 141 17 210 -41 70 -59 167
3 167 106 0 68 -66 157 -163 218 -34 22 -80 59 -102 82 -67 70 -122 86 -190
56z"/>
</g>
</svg>
