<?xml version="1.0" standalone="no"?>
<!DOCTYPE svg PUBLIC "-//W3C//DTD SVG 20010904//EN"
 "http://www.w3.org/TR/2001/REC-SVG-20010904/DTD/svg10.dtd">
<svg version="1.0" xmlns="http://www.w3.org/2000/svg"
 width="50.000000pt" height="50.000000pt" viewBox="0 0 50.000000 50.000000"
 preserveAspectRatio="xMidYMid meet">

<g transform="translate(0.000000,50.000000) scale(0.100000,-0.100000)"
fill="#000000" stroke="none">
<path d="M119 451 c-20 -20 -29 -39 -29 -61 0 -43 47 -90 90 -90 43 0 90 47
90 90 0 43 -47 90 -90 90 -22 0 -41 -9 -61 -29z m77 -52 c10 -17 -13 -36 -27
-22 -12 12 -4 33 11 33 5 0 12 -5 16 -11z"/>
<path d="M150 215 l0 -65 140 0 139 0 3 -62 c3 -55 5 -63 23 -63 18 0 20 8 23
78 3 91 -5 107 -57 107 -20 0 -78 5 -128 12 -87 11 -93 14 -93 35 0 18 -6 23
-25 23 -24 0 -25 -2 -25 -65z"/>
<path d="M37 242 c-33 -36 -8 -92 40 -92 25 0 53 30 53 57 0 46 -62 69 -93 35z"/>
<path d="M20 115 c0 -13 28 -15 190 -15 162 0 190 2 190 15 0 13 -28 15 -190
15 -162 0 -190 -2 -190 -15z"/>
</g>
</svg>
