<?xml version="1.0" standalone="no"?>
<!DOCTYPE svg PUBLIC "-//W3C//DTD SVG 20010904//EN"
 "http://www.w3.org/TR/2001/REC-SVG-20010904/DTD/svg10.dtd">
<svg version="1.0" xmlns="http://www.w3.org/2000/svg"
 width="50.000000pt" height="50.000000pt" viewBox="0 0 50.000000 50.000000"
 preserveAspectRatio="xMidYMid meet">

<g transform="translate(0.000000,50.000000) scale(0.100000,-0.100000)"
fill="#000000" stroke="none">
<path d="M212 458 c-17 -17 -15 -53 3 -68 8 -7 25 -10 40 -6 29 7 44 49 25 71
-15 18 -51 20 -68 3z"/>
<path d="M166 341 c-23 -25 -20 -176 4 -176 11 0 16 15 18 63 3 71 22 85 22
17 0 -45 0 -45 35 -45 35 0 35 0 35 45 0 68 19 54 22 -17 2 -48 7 -63 18 -63
12 0 16 17 18 79 4 103 -7 116 -93 116 -48 0 -66 -4 -79 -19z"/>
<path d="M50 236 c0 -19 -6 -37 -12 -40 -10 -5 -10 -7 0 -12 6 -3 12 -21 12
-40 0 -19 5 -34 10 -34 6 0 10 33 10 80 0 47 -4 80 -10 80 -5 0 -10 -15 -10
-34z"/>
<path d="M90 190 c0 -47 4 -80 10 -80 6 0 10 15 10 34 0 19 6 37 13 40 10 5
10 7 0 12 -7 3 -13 21 -13 40 0 19 -4 34 -10 34 -6 0 -10 -33 -10 -80z"/>
<path d="M380 236 c0 -19 -6 -37 -12 -40 -10 -5 -10 -7 0 -12 6 -3 12 -21 12
-40 0 -19 5 -34 10 -34 6 0 10 33 10 80 0 47 -4 80 -10 80 -5 0 -10 -15 -10
-34z"/>
<path d="M420 190 c0 -47 4 -80 10 -80 6 0 10 15 10 34 0 19 6 37 13 40 10 5
10 7 0 12 -7 3 -13 21 -13 40 0 19 -4 34 -10 34 -6 0 -10 -33 -10 -80z"/>
<path d="M193 151 c-14 -17 -23 -46 -25 -72 -3 -38 0 -44 17 -44 16 0 22 12
34 63 8 34 20 62 26 62 6 0 18 -28 26 -62 12 -51 18 -63 34 -63 17 0 20 6 17
44 -4 57 -36 100 -77 100 -21 0 -37 -9 -52 -28z"/>
</g>
</svg>
