<?xml version="1.0" standalone="no"?>
<!DOCTYPE svg PUBLIC "-//W3C//DTD SVG 20010904//EN"
 "http://www.w3.org/TR/2001/REC-SVG-20010904/DTD/svg10.dtd">
<svg version="1.0" xmlns="http://www.w3.org/2000/svg"
 width="51.000000pt" height="51.000000pt" viewBox="0 0 51.000000 51.000000"
 preserveAspectRatio="xMidYMid meet">

<g transform="translate(0.000000,51.000000) scale(0.100000,-0.100000)"
fill="#000000" stroke="none">
<path d="M222 498 c-15 -15 -16 -50 -2 -64 7 -7 -19 -11 -85 -12 -95 -2 -95
-2 -95 23 0 37 -27 31 -32 -7 -6 -38 4 -84 18 -81 5 1 10 11 12 23 3 17 11 20
52 20 l49 0 7 -45 c5 -39 10 -45 30 -45 22 0 24 -4 24 -42 -1 -24 -9 -88 -20
-143 -16 -84 -16 -102 -5 -114 26 -26 43 -5 55 71 22 137 25 142 39 63 6 -38
14 -85 18 -103 6 -38 28 -52 48 -31 11 12 10 31 -6 114 -10 55 -18 119 -19
143 0 38 2 42 24 42 20 0 25 6 30 45 l7 45 49 0 c41 0 49 -3 52 -20 2 -12 7
-22 12 -23 14 -3 24 43 18 81 -5 38 -32 44 -32 7 0 -25 0 -25 -95 -23 -66 1
-92 5 -85 12 26 26 4 76 -35 76 -12 0 -26 -5 -33 -12z"/>
</g>
</svg>
