<?xml version="1.0" standalone="no"?>
<!DOCTYPE svg PUBLIC "-//W3C//DTD SVG 20010904//EN"
 "http://www.w3.org/TR/2001/REC-SVG-20010904/DTD/svg10.dtd">
<svg version="1.0" xmlns="http://www.w3.org/2000/svg"
 width="50.000000pt" height="50.000000pt" viewBox="0 0 50.000000 50.000000"
 preserveAspectRatio="xMidYMid meet">

<g transform="translate(0.000000,50.000000) scale(0.100000,-0.100000)"
fill="#000000" stroke="none">
<path d="M22 490 c-21 -9 -23 -14 -17 -53 18 -120 32 -141 80 -119 23 11 25
16 19 49 -24 128 -33 142 -82 123z"/>
<path d="M426 492 c-3 -5 -13 -42 -21 -82 -11 -55 -12 -76 -4 -86 14 -17 53
-18 67 -1 14 17 35 148 25 158 -14 13 -61 21 -67 11z"/>
<path d="M133 436 c-26 -12 -30 -26 -9 -26 9 0 16 -17 21 -52 4 -29 18 -74 31
-100 13 -26 24 -56 24 -66 0 -9 -31 -49 -70 -87 -65 -64 -87 -105 -57 -105 6
0 50 32 97 70 86 71 95 75 148 64 l30 -6 -6 -65 c-4 -59 -3 -65 14 -61 18 3
25 23 38 120 l7 47 -42 12 c-22 7 -43 18 -46 24 -2 7 5 34 15 61 11 27 22 70
26 97 5 31 12 47 22 47 8 0 14 5 14 10 0 6 -6 10 -14 10 -8 0 -16 6 -19 13 -3
9 -7 9 -18 0 -15 -12 -158 -16 -174 -4 -5 4 -20 2 -32 -3z m168 -26 c27 0 28
-2 23 -32 -16 -94 -42 -126 -89 -114 -23 6 -45 49 -59 118 -6 25 -3 27 31 31
21 2 44 2 51 0 8 -2 27 -3 43 -3z"/>
<path d="M220 345 c-15 -18 -10 -45 13 -59 34 -22 73 27 47 59 -16 19 -44 19
-60 0z"/>
</g>
</svg>
